<?xml version="1.0" ?><!DOCTYPE svg  PUBLIC '-//W3C//DTD SVG 1.1//EN'  'http://www.w3.org/Graphics/SVG/1.1/DTD/svg11.dtd'><svg enable-background="new 0 0 30 30" height="30px" id="square_icons" version="1.1" viewBox="0 0 30 30" width="30px" xml:space="preserve" xmlns="http://www.w3.org/2000/svg" xmlns:xlink="http://www.w3.org/1999/xlink"><path clip-rule="evenodd" d="M27,6.5l-2.9-2.8l-2.7,2.6L24.3,9L27,6.5z M8.7,6.2L5.9,3.7L3,6.5  L5.7,9L8.7,6.2z M7.3,15.8h15.4c0-0.3,0.1-0.5,0.1-0.8c0-4.1-3.5-7.4-7.8-7.4S7.2,11,7.2,15.1C7.2,15.3,7.3,15.6,7.3,15.8z M17.1,1  h-4.2v4h4.2V1z M4.4,13H0.2v2.8h4.2V13z M0.2,22.4h29.6v-3.3H0.2V22.4z M25.6,13v2.8h4.2V13H25.6z M0.2,29h29.6v-3.3H0.2V29z" fill="#211A16" fill-rule="evenodd"/></svg>